<?xml version="1.0" encoding="UTF-8"?>
<svg id="Calque_1" xmlns="http://www.w3.org/2000/svg" version="1.1" xmlns:xlink="http://www.w3.org/1999/xlink" viewBox="0 0 1109.1 179">
  <!-- Generator: Adobe Illustrator 29.2.0, SVG Export Plug-In . SVG Version: 2.1.0 Build 108)  -->
  <defs>
    <style>
      .st0 {
        fill: #fff;
      }

      .st1 {
        fill: #003754;
      }

      .st2 {
        fill: url(#Dégradé_sans_nom);
      }

      .st3 {
        fill: #0098e8;
      }
    </style>
    <linearGradient id="Dégradé_sans_nom" data-name="Dégradé sans nom" x1="244.4" y1="757.7" x2="422.9" y2="757.7" gradientTransform="translate(-653.7 -244.1) rotate(90) scale(1 -1)" gradientUnits="userSpaceOnUse">
      <stop offset="0" stop-color="#0098e8"/>
      <stop offset=".2" stop-color="#0495c9"/>
      <stop offset=".4" stop-color="#0b919f"/>
      <stop offset=".7" stop-color="#108f80"/>
      <stop offset=".9" stop-color="#138d6d"/>
      <stop offset="1" stop-color="#158d67"/>
    </linearGradient>
  </defs>
  <rect class="st2" x="14.5" y=".3" width="179" height="178.4" rx="48.8" ry="48.8"/>
  <path class="st3" d="M435.1,141.7h4.5l6.8,13.4,6.8-13.4h4.5v19.1h-4.4v-11.1l-5.6,11.1h-2.9l-5.6-11.1v11.1h-4.2v-19.1h0Z"/>
  <path class="st3" d="M461.6,157.6c-.7-1.1-1-2.4-1-3.8s.3-2.7,1-3.8c.7-1.1,1.6-2,2.7-2.7,1.1-.6,2.5-1,3.9-1s2.7.3,3.8,1,2,1.5,2.6,2.6,1,2.3,1,3.7v1h-10.6c.2.9.7,1.7,1.4,2.2s1.5.8,2.5.8,1.4-.2,2-.5,1-.8,1.4-1.3l2.9,2.5c-.7.9-1.6,1.6-2.8,2.1-1.1.5-2.4.8-3.8.8s-2.9-.3-4.1-1c-1.2-.6-2.1-1.5-2.8-2.7h0ZM465.1,151.8h6c-.2-.8-.6-1.3-1.1-1.7s-1.1-.6-1.8-.6-1.3.2-1.9.6-1,.9-1.2,1.6h0Z"/>
  <path class="st3" d="M479.7,150.2h-3.1v-3.4h3.1v-4h4.3v4h3.6v3.4h-3.6v10.6h-4.3v-10.6Z"/>
  <path class="st3" d="M502.4,160.8h-4.3v-1.3c-.5.5-1,.9-1.6,1.2s-1.3.4-2.1.4-1.8-.2-2.6-.6c-.8-.4-1.4-1-1.9-1.7s-.7-1.5-.7-2.5.2-1.8.7-2.5c.5-.7,1.1-1.3,1.8-1.7s1.6-.6,2.6-.6,1.4.1,2,.4c.6.3,1.2.6,1.6,1.1v-.5c0-.8-.3-1.5-.8-2s-1.2-.8-2.1-.8-1.1.1-1.6.3c-.5.2-.9.6-1.2,1l-2.7-2.3c.6-.7,1.4-1.3,2.4-1.7,1-.4,2.1-.6,3.4-.6s2.5.2,3.6.8,1.8,1.2,2.4,2.1c.6.9.9,2,.9,3.3v8.2h0ZM494.2,155.1c-.4.3-.6.7-.6,1.2s.2.8.6,1.1.9.5,1.6.5,1.2-.2,1.6-.5.6-.7.6-1.1-.2-.9-.6-1.2c-.4-.3-1-.5-1.6-.5s-1.2.2-1.6.5Z"/>
  <path class="st3" d="M520.1,160.8h-4.3v-1.7c-.5.7-1.2,1.2-1.9,1.6s-1.6.6-2.5.6-2.3-.3-3.4-.9-1.8-1.5-2.4-2.6c-.6-1.1-.9-2.4-.9-3.8s.3-2.7.9-3.8,1.4-2,2.4-2.6,2.1-.9,3.4-.9,1.8.2,2.5.6,1.4.9,1.9,1.6v-8.2h4.3v20.5h0ZM514.8,151.2c-.7-.7-1.4-1-2.4-1s-1.7.4-2.4,1c-.6.7-1,1.6-1,2.6s.3,1.9,1,2.6c.6.7,1.4,1.1,2.4,1.1s1.7-.4,2.4-1.1c.7-.7,1-1.6,1-2.6s-.3-1.9-1-2.6Z"/>
  <path class="st3" d="M535.7,160.8h-4.3v-1.3c-.5.5-1,.9-1.6,1.2s-1.3.4-2.1.4-1.8-.2-2.6-.6c-.8-.4-1.4-1-1.9-1.7s-.7-1.5-.7-2.5.2-1.8.7-2.5c.5-.7,1.1-1.3,1.8-1.7.8-.4,1.7-.6,2.6-.6s1.4.1,2,.4c.6.3,1.2.6,1.6,1.1v-.5c0-.8-.3-1.5-.8-2-.5-.5-1.2-.8-2.1-.8s-1.1.1-1.6.3c-.5.2-.9.6-1.2,1l-2.7-2.3c.6-.7,1.4-1.3,2.4-1.7s2.1-.6,3.4-.6,2.5.2,3.6.8,1.8,1.2,2.4,2.1c.6.9.9,2,.9,3.3v8.2h0,0ZM527.5,155.1c-.4.3-.6.7-.6,1.2s.2.8.6,1.1.9.5,1.6.5,1.2-.2,1.6-.5.6-.7.6-1.1-.2-.9-.6-1.2c-.4-.3-1-.5-1.6-.5s-1.2.2-1.6.5Z"/>
  <path class="st3" d="M540.8,150.2h-3.1v-3.4h3.1v-4h4.3v4h3.6v3.4h-3.6v10.6h-4.3v-10.6Z"/>
  <path class="st3" d="M563.4,160.8h-4.3v-1.3c-.5.5-1,.9-1.6,1.2s-1.3.4-2.1.4-1.8-.2-2.6-.6c-.8-.4-1.4-1-1.9-1.7s-.7-1.5-.7-2.5.2-1.8.7-2.5c.5-.7,1.1-1.3,1.8-1.7.8-.4,1.7-.6,2.6-.6s1.4.1,2,.4c.6.3,1.2.6,1.6,1.1v-.5c0-.8-.3-1.5-.8-2-.5-.5-1.2-.8-2.1-.8s-1.1.1-1.6.3c-.5.2-.9.6-1.2,1l-2.7-2.3c.6-.7,1.4-1.3,2.4-1.7s2.1-.6,3.4-.6,2.5.2,3.6.8,1.8,1.2,2.4,2.1c.6.9.9,2,.9,3.3v8.2h0,0ZM555.2,155.1c-.4.3-.6.7-.6,1.2s.2.8.6,1.1.9.5,1.6.5,1.2-.2,1.6-.5.6-.7.6-1.1-.2-.9-.6-1.2c-.4-.3-1-.5-1.6-.5s-1.2.2-1.6.5Z"/>
  <path class="st3" d="M573.7,140.3h4.3v8.2c.5-.7,1.2-1.2,1.9-1.6s1.6-.6,2.5-.6,2.3.3,3.3.9,1.8,1.5,2.4,2.6.9,2.4.9,3.8-.3,2.7-.9,3.8c-.6,1.1-1.4,2-2.4,2.6s-2.1.9-3.3.9-1.8-.2-2.5-.6-1.4-.9-1.9-1.6v1.7h-4.3v-20.5h0ZM579,156.4c.6.7,1.4,1.1,2.4,1.1s1.7-.4,2.4-1.1c.6-.7,1-1.6,1-2.6s-.3-1.9-1-2.6-1.4-1-2.4-1-1.7.4-2.4,1c-.6.7-1,1.6-1,2.6s.3,1.9,1,2.6Z"/>
  <path class="st3" d="M591.5,146.8h4.3v2.1c.4-.8.9-1.3,1.6-1.8.7-.4,1.4-.6,2.3-.6s.9,0,1.4.2v4.6c-.3-.2-.7-.4-1.1-.4s-.8-.1-1.1-.1c-.8,0-1.5.3-2.1.8-.6.6-.9,1.4-.9,2.4v6.9h-4.3v-14h0Z"/>
  <path class="st3" d="M603.3,150c.7-1.1,1.6-2,2.8-2.7s2.5-1,4-1,2.8.3,4,1c1.2.6,2.1,1.5,2.8,2.7.7,1.1,1,2.4,1,3.8s-.3,2.7-1,3.8c-.7,1.1-1.6,2-2.8,2.7-1.2.6-2.5,1-4,1s-2.8-.3-4-1-2.1-1.5-2.8-2.7c-.7-1.1-1-2.4-1-3.8s.3-2.7,1-3.8ZM607.7,156.4c.7.7,1.4,1.1,2.3,1.1s1.7-.4,2.4-1.1c.7-.7,1-1.6,1-2.6s-.3-1.9-1-2.6c-.7-.7-1.4-1-2.4-1s-1.7.4-2.3,1c-.7.7-1,1.6-1,2.6s.3,1.9,1,2.6Z"/>
  <path class="st3" d="M620.3,140.3h4.3v11.2h.5l4.4-4.8h5.5l-6.4,6.4,6.7,7.5h-5.6l-4.6-5.6h-.4v5.6h-4.3v-20.5h0Z"/>
  <path class="st3" d="M636.5,157.6c-.7-1.1-1-2.4-1-3.8s.3-2.7,1-3.8c.7-1.1,1.6-2,2.7-2.7s2.5-1,3.9-1,2.7.3,3.8,1c1.1.6,2,1.5,2.6,2.6s1,2.3,1,3.7v1h-10.6c.2.9.7,1.7,1.4,2.2s1.5.8,2.5.8,1.4-.2,2-.5,1-.8,1.4-1.3l2.9,2.5c-.7.9-1.7,1.6-2.8,2.1-1.2.5-2.4.8-3.8.8s-2.9-.3-4.1-1-2.1-1.5-2.8-2.7h0ZM640,151.8h6c-.2-.8-.6-1.3-1.1-1.7s-1.1-.6-1.8-.6-1.3.2-1.9.6-1,.9-1.2,1.6Z"/>
  <path class="st3" d="M652.8,146.8h4.3v2.1c.4-.8.9-1.3,1.6-1.8.7-.4,1.4-.6,2.3-.6s.9,0,1.4.2v4.6c-.3-.2-.7-.4-1.1-.4s-.8-.1-1.1-.1c-.8,0-1.5.3-2.1.8-.6.6-.9,1.4-.9,2.4v6.9h-4.3v-14h0Z"/>
  <path class="st3" d="M677.9,160.8h-4.3v-10.6h-2.7v-3.4h2.7v-.6c0-1.3.3-2.5.9-3.4.6-.9,1.4-1.7,2.4-2.2s2.2-.8,3.6-.8,1.8.1,2.7.4v3.7c-.3-.2-.7-.3-1-.4s-.8-.1-1.2-.1c-.8,0-1.5.2-2.1.7-.6.5-.8,1.2-.8,2.1v.6h4v3.4h-4v10.6h0s0,0,0,0Z"/>
  <path class="st3" d="M684,150c.7-1.1,1.6-2,2.8-2.7s2.5-1,4-1,2.8.3,4,1c1.2.6,2.1,1.5,2.8,2.7.7,1.1,1,2.4,1,3.8s-.3,2.7-1,3.8c-.7,1.1-1.6,2-2.8,2.7-1.2.6-2.5,1-4,1s-2.8-.3-4-1-2.1-1.5-2.8-2.7c-.7-1.1-1-2.4-1-3.8s.3-2.7,1-3.8ZM688.3,156.4c.7.7,1.4,1.1,2.3,1.1s1.7-.4,2.4-1.1c.7-.7,1-1.6,1-2.6s-.3-1.9-1-2.6c-.7-.7-1.4-1-2.4-1s-1.7.4-2.3,1c-.7.7-1,1.6-1,2.6s.3,1.9,1,2.6Z"/>
  <path class="st3" d="M701,146.8h4.3v2.1c.4-.8.9-1.3,1.6-1.8.7-.4,1.4-.6,2.3-.6s.9,0,1.4.2v4.6c-.3-.2-.7-.4-1.1-.4s-.8-.1-1.1-.1c-.8,0-1.5.3-2.1.8-.6.6-.9,1.4-.9,2.4v6.9h-4.3v-14h0Z"/>
  <path class="st3" d="M719.9,146.8h4.3v1.7c.5-.7,1.2-1.2,1.9-1.6s1.6-.6,2.5-.6,2.3.3,3.4.9,1.8,1.5,2.4,2.6.9,2.4.9,3.8-.3,2.7-.9,3.8c-.6,1.1-1.4,2-2.4,2.6-1,.6-2.1.9-3.4.9s-1.8-.2-2.5-.6-1.4-.9-1.9-1.6v7.6h-4.3v-19.9h0ZM725.2,156.4c.6.7,1.4,1.1,2.4,1.1s1.7-.4,2.4-1.1c.6-.7,1-1.6,1-2.6s-.3-1.9-1-2.6-1.4-1-2.4-1-1.7.4-2.4,1c-.6.7-1,1.6-1,2.6s.3,1.9,1,2.6Z"/>
  <path class="st3" d="M737.8,146.8h4.3v2.1c.4-.8.9-1.3,1.6-1.8.7-.4,1.4-.6,2.3-.6s.9,0,1.4.2v4.6c-.3-.2-.7-.4-1.1-.4s-.8-.1-1.1-.1c-.8,0-1.5.3-2.1.8-.6.6-.9,1.4-.9,2.4v6.9h-4.3v-14h0Z"/>
  <path class="st3" d="M749.5,150c.7-1.1,1.6-2,2.8-2.7s2.5-1,4-1,2.8.3,4,1c1.2.6,2.1,1.5,2.8,2.7.7,1.1,1,2.4,1,3.8s-.3,2.7-1,3.8c-.7,1.1-1.6,2-2.8,2.7-1.2.6-2.5,1-4,1s-2.8-.3-4-1-2.1-1.5-2.8-2.7c-.7-1.1-1-2.4-1-3.8s.3-2.7,1-3.8ZM753.9,156.4c.7.7,1.4,1.1,2.3,1.1s1.7-.4,2.4-1.1c.7-.7,1-1.6,1-2.6s-.3-1.9-1-2.6c-.7-.7-1.4-1-2.4-1s-1.7.4-2.3,1c-.7.7-1,1.6-1,2.6s.3,1.9,1,2.6Z"/>
  <path class="st3" d="M781.3,160.8h-4.3v-1.7c-.5.7-1.2,1.2-1.9,1.6s-1.6.6-2.5.6-2.3-.3-3.3-.9-1.8-1.5-2.4-2.6c-.6-1.1-.9-2.4-.9-3.8s.3-2.7.9-3.8,1.4-2,2.4-2.6,2.1-.9,3.3-.9,1.8.2,2.5.6,1.4.9,1.9,1.6v-8.2h4.3v20.5h0ZM776,151.2c-.7-.7-1.4-1-2.4-1s-1.7.4-2.3,1c-.7.7-1,1.6-1,2.6s.3,1.9,1,2.6c.7.7,1.4,1.1,2.3,1.1s1.7-.4,2.4-1.1c.7-.7,1-1.6,1-2.6s-.3-1.9-1-2.6Z"/>
  <path class="st3" d="M797.4,160.8h-4.3v-1.5c-.5.6-1,1.1-1.7,1.4s-1.4.5-2.3.5c-1.5,0-2.7-.5-3.6-1.5s-1.3-2.3-1.3-4.1v-8.9h4.3v8.3c0,.8.2,1.4.5,1.8s.9.7,1.5.7,1.3-.3,1.8-.8c.5-.5.7-1.2.7-2.1v-7.9h4.3v14h0Z"/>
  <path class="st3" d="M801,150c.7-1.1,1.6-2,2.8-2.7,1.2-.6,2.5-1,4-1s2.5.3,3.6.8c1.1.5,2,1.2,2.7,2.1l-3,2.7c-.4-.6-.8-1.1-1.3-1.4s-1.1-.4-1.8-.4-1.2.2-1.8.5-1,.7-1.3,1.3-.5,1.2-.5,1.9.2,1.3.5,1.9.8,1,1.3,1.3,1.1.5,1.8.5,1.2-.1,1.8-.4,1-.7,1.3-1.4l3,2.7c-.7.9-1.6,1.6-2.7,2.1-1.1.5-2.3.8-3.6.8s-2.8-.3-4-1c-1.2-.6-2.1-1.5-2.8-2.7s-1-2.4-1-3.8.3-2.7,1-3.8h0Z"/>
  <path class="st3" d="M818.2,150.2h-3.1v-3.4h3.1v-4h4.3v4h3.6v3.4h-3.6v10.6h-4.3v-10.6Z"/>
  <path class="st3" d="M828.6,140.6c.5-.5,1.1-.7,1.9-.7s1.4.2,1.9.7c.5.5.8,1,.8,1.8s-.2,1.3-.8,1.8-1.1.7-1.9.7-1.4-.2-1.9-.7c-.5-.5-.8-1-.8-1.8s.2-1.3.8-1.8ZM828.4,146.8h4.3v14h-4.3v-14Z"/>
  <path class="st3" d="M836.2,150c.7-1.1,1.6-2,2.8-2.7s2.5-1,4-1,2.8.3,4,1c1.2.6,2.1,1.5,2.8,2.7.7,1.1,1,2.4,1,3.8s-.3,2.7-1,3.8c-.7,1.1-1.6,2-2.8,2.7-1.2.6-2.5,1-4,1s-2.8-.3-4-1-2.1-1.5-2.8-2.7c-.7-1.1-1-2.4-1-3.8s.3-2.7,1-3.8ZM840.6,156.4c.7.7,1.4,1.1,2.3,1.1s1.7-.4,2.4-1.1c.7-.7,1-1.6,1-2.6s-.3-1.9-1-2.6c-.7-.7-1.4-1-2.4-1s-1.7.4-2.3,1c-.7.7-1,1.6-1,2.6s.3,1.9,1,2.6Z"/>
  <path class="st3" d="M853.2,146.8h4.3v1.5c.5-.6,1-1.1,1.7-1.4s1.4-.5,2.3-.5c1.5,0,2.7.5,3.6,1.5s1.3,2.3,1.3,4.1v8.9h-4.3v-8.3c0-.8-.2-1.4-.5-1.8s-.9-.7-1.5-.7-1.3.3-1.8.8c-.5.5-.7,1.2-.7,2.1v7.9h-4.3v-14h0Z"/>
  <path class="st3" d="M876.6,155.6h-8.2v-3.7h8.2v3.7Z"/>
  <path class="st3" d="M895.1,160.8h-2.6l-3.6-8.3-3.6,8.3h-2.5l-5.6-14h4.5l2.7,7.6,3.3-7.6h2.6l3.2,7.5,2.8-7.5h4.3l-5.6,14Z"/>
  <path class="st3" d="M903,140.6c.5-.5,1.1-.7,1.9-.7s1.4.2,1.9.7c.5.5.8,1,.8,1.8s-.2,1.3-.8,1.8-1.1.7-1.9.7-1.4-.2-1.9-.7c-.5-.5-.8-1-.8-1.8s.2-1.3.8-1.8ZM902.7,146.8h4.3v14h-4.3v-14Z"/>
  <path class="st3" d="M911.8,156.1c.4.6.8,1.1,1.5,1.4s1.3.5,2,.5,1.2-.1,1.5-.4c.4-.2.5-.6.5-1s-.2-.7-.4-.9-.5-.2-.8-.3c-.2,0-.5,0-.9-.1-.4,0-.8-.1-1.2-.2-.2,0-.5-.1-1-.2-.5-.1-.9-.3-1.5-.6s-.9-.7-1.3-1.2-.5-1.2-.5-2,.3-1.8.8-2.5c.5-.7,1.2-1.3,2.1-1.7s1.8-.6,2.9-.6,2.2.2,3.1.6c1,.4,1.8,1,2.5,1.7l-2.6,2.4c-.3-.5-.7-.9-1.2-1.2-.5-.3-1-.4-1.7-.4s-1,.1-1.4.3-.5.5-.5.9.1.6.4.7.5.2.8.2.6,0,1,.1c.4,0,.8.1,1.2.2.2,0,.5,0,1,.2.5.1.9.3,1.4.6s.9.7,1.3,1.2c.3.6.5,1.3.5,2.1s-.3,1.9-.8,2.7c-.5.8-1.2,1.3-2.2,1.8-.9.4-2,.6-3.2.6s-2.5-.2-3.6-.7-2-1.1-2.8-1.9l2.8-2.5h0Z"/>
  <path class="st3" d="M924.4,157.6c-.7-1.1-1-2.4-1-3.8s.3-2.7,1-3.8c.7-1.1,1.6-2,2.7-2.7s2.5-1,3.9-1,2.7.3,3.8,1c1.1.6,2,1.5,2.6,2.6s1,2.3,1,3.7v1h-10.6c.2.9.7,1.7,1.4,2.2s1.5.8,2.5.8,1.4-.2,2-.5,1-.8,1.4-1.3l2.9,2.5c-.7.9-1.7,1.6-2.8,2.1-1.2.5-2.4.8-3.8.8s-2.9-.3-4.1-1-2.1-1.5-2.8-2.7h0ZM927.9,151.8h6c-.2-.8-.6-1.3-1.1-1.7s-1.1-.6-1.8-.6-1.3.2-1.9.6-1,.9-1.2,1.6Z"/>
  <path class="st3" d="M964.8,160.8h-2.6l-3.6-8.3-3.6,8.3h-2.5l-5.6-14h4.5l2.7,7.6,3.3-7.6h2.6l3.2,7.5,2.8-7.5h4.3l-5.6,14Z"/>
  <path class="st3" d="M972.1,150c.7-1.1,1.6-2,2.8-2.7s2.5-1,4-1,2.8.3,4,1c1.2.6,2.1,1.5,2.8,2.7.7,1.1,1,2.4,1,3.8s-.3,2.7-1,3.8c-.7,1.1-1.6,2-2.8,2.7-1.2.6-2.5,1-4,1s-2.8-.3-4-1-2.1-1.5-2.8-2.7c-.7-1.1-1-2.4-1-3.8s.3-2.7,1-3.8ZM976.5,156.4c.7.7,1.4,1.1,2.3,1.1s1.7-.4,2.4-1.1c.7-.7,1-1.6,1-2.6s-.3-1.9-1-2.6c-.7-.7-1.4-1-2.4-1s-1.7.4-2.3,1c-.7.7-1,1.6-1,2.6s.3,1.9,1,2.6Z"/>
  <path class="st3" d="M989.1,146.8h4.3v2.1c.4-.8.9-1.3,1.6-1.8.7-.4,1.4-.6,2.3-.6s.9,0,1.4.2v4.6c-.3-.2-.7-.4-1.1-.4s-.8-.1-1.1-.1c-.8,0-1.5.3-2.1.8-.6.6-.9,1.4-.9,2.4v6.9h-4.3v-14h0Z"/>
  <path class="st3" d="M1000.6,140.3h4.3v11.2h.5l4.4-4.8h5.5l-6.4,6.4,6.7,7.5h-5.6l-4.6-5.6h-.4v5.6h-4.3v-20.5h0Z"/>
  <path class="st3" d="M1019.3,150.2h-2.7v-3.4h2.7v-.6c0-1.3.3-2.5.9-3.4.6-.9,1.4-1.7,2.4-2.2s2.2-.8,3.6-.8.7,0,1,0,.7.1.9.2v3.6c-.2-.1-.5-.2-.7-.3-.2,0-.5,0-.8,0-.8,0-1.5.2-2.1.7-.6.5-.8,1.2-.8,2.1v.6h4v3.4h-4v10.6h-4.3v-10.6h0,0ZM1029.3,140.3h4.3v20.5h-4.3v-20.5Z"/>
  <path class="st3" d="M1036.8,150c.7-1.1,1.6-2,2.8-2.7s2.5-1,3.9-1,2.8.3,4,1c1.2.6,2.1,1.5,2.8,2.7.7,1.1,1,2.4,1,3.8s-.3,2.7-1,3.8c-.7,1.1-1.6,2-2.8,2.7-1.2.6-2.5,1-4,1s-2.8-.3-3.9-1-2.1-1.5-2.8-2.7c-.7-1.1-1-2.4-1-3.8s.3-2.7,1-3.8ZM1041.2,156.4c.7.7,1.4,1.1,2.3,1.1s1.7-.4,2.4-1.1c.7-.7,1-1.6,1-2.6s-.3-1.9-1-2.6c-.7-.7-1.4-1-2.4-1s-1.7.4-2.3,1c-.7.7-1,1.6-1,2.6s.3,1.9,1,2.6Z"/>
  <path class="st3" d="M1069.8,160.8h-2.6l-3.6-8.3-3.6,8.3h-2.5l-5.6-14h4.5l2.7,7.6,3.3-7.6h2.6l3.2,7.5,2.8-7.5h4.3l-5.6,14h0Z"/>
  <path class="st3" d="M1078.6,156.1c.4.6.8,1.1,1.5,1.4s1.3.5,2,.5,1.2-.1,1.5-.4c.4-.2.6-.6.6-1s-.2-.7-.4-.9-.6-.2-.8-.3c-.2,0-.5,0-.9-.1-.4,0-.8-.1-1.2-.2-.2,0-.6-.1-1-.2-.5-.1-.9-.3-1.4-.6s-.9-.7-1.3-1.2-.5-1.2-.5-2,.3-1.8.8-2.5c.5-.7,1.2-1.3,2.1-1.7s1.8-.6,2.9-.6,2.2.2,3.1.6c1,.4,1.8,1,2.5,1.7l-2.6,2.4c-.3-.5-.7-.9-1.2-1.2-.5-.3-1.1-.4-1.7-.4s-1,.1-1.4.3-.5.5-.5.9.1.6.4.7.5.2.8.2.6,0,1,.1c.4,0,.8.1,1.2.2.2,0,.5,0,1,.2s.9.3,1.4.6.9.7,1.3,1.2c.3.6.5,1.3.5,2.1s-.3,1.9-.8,2.7c-.5.8-1.2,1.3-2.2,1.8-.9.4-2,.6-3.2.6s-2.5-.2-3.6-.7-2-1.1-2.8-1.9l2.8-2.5h0Z"/>
  <path class="st1" d="M215.5,70.9c0-32,23.7-56,55.8-56s45,15.2,51.8,37.6h-18.7c-5.7-12.7-17.9-20.9-33.2-20.9-22.1,0-38,16.7-38,39.3s15.9,39.3,38,39.3,27.5-8.2,33.2-20.9h18.7c-6.8,22.4-26.8,37.6-51.8,37.6s-55.8-24-55.8-56h0Z"/>
  <path class="st1" d="M333.6,6h17.6v119.1h-17.6V6Z"/>
  <path class="st1" d="M365,40h17.5v85.1h-17.5V40Z"/>
  <path class="st1" d="M397.3,40h17.5v14.4c6.3-9.7,16.4-16.2,29.9-16.2,22.3,0,39.1,18.4,39.1,44.4s-16.5,44.4-39.3,44.4-23.4-6.3-29.7-16.1v52.9h-17.5V40h0ZM466.2,82.5c0-16.2-10.5-27.7-25.4-27.7s-26.1,11.4-26.1,27.7,11.3,27.7,26.1,27.7,25.4-11.3,25.4-27.7h0Z"/>
  <path class="st1" d="M504.5,92.4v-36h-15.8v-16.4h15.8v-19.3l17.5-3.9v23.2h35v16.4h-35v35.1c0,12.4,5.7,19.2,16.7,19.2s11.4-1.9,18.1-4.2l3.1,14.2c-4.6,2.8-14.5,6.2-24.3,6.2-17.5,0-31.1-11-31.1-34.5h0Z"/>
  <path class="st1" d="M569.6,40h17.5v16.7c5.3-11.8,14.8-18.6,28.3-18.6s3.9.2,5.1.5v17.8c-1.5-.2-2.9-.3-5.3-.3-15.9,0-28.2,9-28.2,30v39h-17.5V40h0Z"/>
  <path class="st1" d="M624.8,82.5c0-26,16.9-44.4,39.1-44.4s23.7,6.7,29.8,16.4v-14.5h17.5v85.1h-17.5v-14.2c-6.3,9.7-16.4,16.1-29.7,16.1-22.7,0-39.3-18.4-39.3-44.4h0ZM694,82.5c0-16.2-11.3-27.7-26.1-27.7s-25.4,11.4-25.4,27.7,10.7,27.7,25.4,27.7,26.1-11.3,26.1-27.7Z"/>
  <path class="st1" d="M722.7,82.5c0-25.4,18.9-44.4,44.2-44.4s37.9,12.2,41.8,32.8h-18.1c-3.2-10.7-12.7-16.5-23.7-16.5-15.8,0-26.6,11.7-26.6,28.1s11.1,28.2,26.5,28.2,20.6-6.2,23.8-16.7h18.1c-4,21-22,32.9-41.9,32.9s-44.1-19-44.1-44.4h0Z"/>
  <path class="st1" d="M836.9,76.6l36.8-36.7h22.4l-41.6,40.4,45,44.7h-22.6l-40-39.1v39.1h-17.5V6h17.5v70.7h0Z"/>
  <path class="st1" d="M939.7,82.7c0-25.7,18.2-44.5,43.9-44.5s44.7,21.2,43,49.2h-69c1.2,15.6,12.2,24.3,26.4,24.3s18.7-4.3,22.7-12.7h18.1c-6.7,19-22.9,27.8-41,27.8-25.8,0-44.2-18.4-44.2-44.1h0ZM1007.9,73.1c-2.6-11.8-11.3-19.8-24.3-19.8s-22.3,8.2-25,19.8h49.3Z"/>
  <path class="st1" d="M1037.4,40h17.5v16.7c5.3-11.8,14.8-18.6,28.3-18.6s3.9.2,5.1.5v17.8c-1.6-.2-2.9-.3-5.3-.3-15.9,0-28.2,9-28.2,30v39h-17.5V40h0Z"/>
  <polygon class="st1" points="916.2 39.9 938.6 39.9 897 80.3 942 125 919.4 125 873.9 80.5 916.2 39.9"/>
  <path class="st3" d="M385.2,22c0,6.6-4.8,11.4-11.5,11.4s-11.4-4.8-11.4-11.4,5-11.1,11.4-11.1,11.5,4.7,11.5,11.1Z"/>
  <path class="st0" d="M87.4,87.9l42.1,52h-25.8l-37.9-47v47h-20.6V39.1h20.6v44.5l35.9-44.5h25.5l-39.8,48.9h0Z"/>
  <polygon class="st1" points="141.6 39.1 161.6 39.1 124.4 86.9 164.7 140 144.5 140 103.7 87.3 141.6 39.1"/>
</svg>