<?xml version="1.0" encoding="UTF-8"?><svg id="Calque_1" xmlns="http://www.w3.org/2000/svg" xmlns:xlink="http://www.w3.org/1999/xlink" viewBox="0 0 1109.05 179.03"><defs><style>.cls-1{fill:#fff;}.cls-2{fill:#0098e8;}.cls-3{fill:url(#Dégradé_sans_nom_53);}.cls-4{fill:#003754;}</style><linearGradient id="Dégradé_sans_nom_53" x1="199.41" y1="277.31" x2="377.85" y2="277.31" gradientTransform="translate(381.26 -199.11) rotate(90)" gradientUnits="userSpaceOnUse"><stop offset="0" stop-color="#0098e8"/><stop offset=".16" stop-color="#0495c9"/><stop offset=".42" stop-color="#0b919f"/><stop offset=".66" stop-color="#108f80"/><stop offset=".86" stop-color="#138d6d"/><stop offset="1" stop-color="#158d67"/></linearGradient></defs><rect class="cls-3" x="14.46" y=".3" width="178.98" height="178.44" rx="48.84" ry="48.84"/><path class="cls-2" d="M435.12,141.66h4.55l6.77,13.45,6.75-13.45h4.55v19.13h-4.36v-11.09l-5.6,11.09h-2.87l-5.57-11.09v11.09h-4.23v-19.13h0Z"/><path class="cls-2" d="M461.61,157.57c-.68-1.13-1.02-2.39-1.02-3.77s.33-2.66,1-3.77c.67-1.13,1.58-2.01,2.73-2.67,1.15-.65,2.46-.98,3.89-.98s2.7.32,3.81.96,1.98,1.52,2.61,2.61.95,2.33.95,3.7v.99h-10.64c.23.95.69,1.69,1.39,2.21s1.53.79,2.49.79c.77,0,1.44-.16,2.02-.48s1.04-.77,1.38-1.34l2.89,2.52c-.71.87-1.65,1.57-2.8,2.09-1.15.51-2.41.78-3.79.78-1.55,0-2.92-.32-4.13-.98-1.19-.65-2.13-1.54-2.81-2.67h.01ZM465.09,151.84h6.03c-.21-.75-.58-1.31-1.12-1.67s-1.14-.55-1.83-.55-1.32.2-1.87.59-.96.94-1.21,1.63Z"/><path class="cls-2" d="M479.74,150.21h-3.06v-3.4h3.06v-4.04h4.31v4.04h3.64v3.4h-3.64v10.58h-4.31v-10.58Z"/><path class="cls-2" d="M502.37,160.79h-4.31v-1.26c-.45.48-.98.87-1.61,1.16s-1.32.45-2.06.45c-.93,0-1.79-.2-2.56-.61-.78-.41-1.39-.97-1.86-1.69s-.69-1.54-.69-2.47.22-1.79.67-2.5c.45-.73,1.06-1.29,1.83-1.7s1.65-.61,2.61-.61c.74,0,1.42.13,2.05.39.64.26,1.17.62,1.62,1.12v-.48c0-.84-.26-1.52-.77-2.03s-1.21-.78-2.1-.78c-.56,0-1.08.11-1.6.32-.51.21-.92.55-1.22.99l-2.66-2.33c.62-.71,1.43-1.28,2.41-1.72.98-.42,2.12-.65,3.43-.65s2.54.25,3.56.75,1.81,1.22,2.39,2.14c.57.93.86,2.03.86,3.33v8.19h0ZM494.23,155.05c-.41.3-.61.69-.61,1.18,0,.45.2.83.61,1.14s.94.47,1.58.47,1.17-.16,1.6-.47.62-.69.62-1.14c0-.48-.21-.87-.62-1.18-.42-.3-.95-.46-1.6-.46s-1.17.16-1.58.46Z"/><path class="cls-2" d="M520.13,160.79h-4.31v-1.69c-.51.66-1.15,1.18-1.9,1.55s-1.58.56-2.52.56c-1.22,0-2.33-.31-3.35-.95s-1.83-1.51-2.42-2.62c-.6-1.12-.89-2.4-.89-3.84s.3-2.72.89-3.84,1.41-1.99,2.42-2.62,2.13-.95,3.35-.95c.93,0,1.76.19,2.52.56s1.38.9,1.9,1.58v-8.19h4.31v20.47-.02ZM514.85,151.19c-.65-.69-1.44-1.03-2.39-1.03s-1.72.35-2.35,1.03c-.65.69-.96,1.56-.96,2.61s.32,1.9.96,2.6c.65.69,1.43,1.05,2.35,1.05s1.74-.35,2.39-1.05c.65-.69.96-1.56.96-2.6s-.32-1.92-.96-2.61Z"/><path class="cls-2" d="M535.69,160.79h-4.31v-1.26c-.45.48-.98.87-1.61,1.16s-1.32.45-2.06.45c-.93,0-1.79-.2-2.56-.61-.78-.41-1.39-.97-1.86-1.69s-.69-1.54-.69-2.47.22-1.79.67-2.5c.45-.73,1.06-1.29,1.83-1.7.78-.41,1.65-.61,2.61-.61.74,0,1.42.13,2.05.39.64.26,1.17.62,1.62,1.12v-.48c0-.84-.26-1.52-.76-2.03-.51-.51-1.21-.78-2.1-.78-.56,0-1.08.11-1.6.32-.51.21-.92.55-1.22.99l-2.66-2.33c.62-.71,1.43-1.28,2.41-1.72s2.12-.65,3.43-.65,2.54.25,3.56.75,1.81,1.22,2.39,2.14c.57.93.86,2.03.86,3.33v8.19h-.01ZM527.54,155.05c-.41.3-.61.69-.61,1.18,0,.45.2.83.61,1.14s.94.47,1.58.47,1.17-.16,1.6-.47.62-.69.62-1.14c0-.48-.21-.87-.62-1.18-.42-.3-.95-.46-1.6-.46s-1.17.16-1.58.46Z"/><path class="cls-2" d="M540.76,150.21h-3.06v-3.4h3.06v-4.04h4.31v4.04h3.64v3.4h-3.64v10.58h-4.31v-10.58Z"/><path class="cls-2" d="M563.38,160.79h-4.31v-1.26c-.45.48-.98.87-1.61,1.16s-1.32.45-2.06.45c-.93,0-1.79-.2-2.56-.61-.78-.41-1.39-.97-1.86-1.69s-.69-1.54-.69-2.47.22-1.79.67-2.5c.45-.73,1.06-1.29,1.83-1.7.78-.41,1.65-.61,2.61-.61.74,0,1.42.13,2.05.39.64.26,1.17.62,1.62,1.12v-.48c0-.84-.26-1.52-.76-2.03-.51-.51-1.21-.78-2.1-.78-.56,0-1.08.11-1.6.32-.51.21-.92.55-1.22.99l-2.66-2.33c.62-.71,1.43-1.28,2.41-1.72s2.12-.65,3.43-.65,2.54.25,3.56.75,1.81,1.22,2.39,2.14c.57.93.86,2.03.86,3.33v8.19h-.01ZM555.24,155.05c-.41.3-.61.69-.61,1.18,0,.45.2.83.61,1.14s.94.47,1.58.47,1.17-.16,1.6-.47.62-.69.62-1.14c0-.48-.21-.87-.62-1.18-.42-.3-.95-.46-1.6-.46s-1.17.16-1.58.46Z"/><path class="cls-2" d="M573.69,140.32h4.31v8.17c.51-.66,1.15-1.18,1.89-1.55s1.58-.56,2.53-.56c1.23,0,2.34.31,3.35.95s1.8,1.51,2.4,2.62.89,2.4.89,3.84-.3,2.72-.89,3.84c-.6,1.12-1.39,1.99-2.4,2.62s-2.12.95-3.35.95c-.95,0-1.79-.19-2.53-.56s-1.37-.89-1.89-1.55v1.69h-4.31v-20.47h0ZM578.96,156.39c.64.69,1.43,1.05,2.37,1.05s1.74-.35,2.37-1.05c.64-.69.95-1.56.95-2.6s-.31-1.92-.95-2.61c-.64-.69-1.43-1.03-2.37-1.03s-1.74.35-2.37,1.03c-.64.69-.95,1.56-.95,2.61s.31,1.9.95,2.6Z"/><path class="cls-2" d="M591.55,146.81h4.31v2.06c.41-.75.94-1.34,1.6-1.76.65-.42,1.41-.65,2.27-.65.45,0,.9.07,1.36.21v4.55c-.33-.2-.7-.35-1.09-.45s-.77-.15-1.13-.15c-.84,0-1.55.28-2.13.83-.58.56-.87,1.36-.87,2.41v6.91h-4.31v-13.98h0Z"/><path class="cls-2" d="M603.28,150.02c.68-1.13,1.61-2.01,2.77-2.67s2.49-.98,3.95-.98,2.81.32,3.97.98c1.17.65,2.1,1.54,2.77,2.67.68,1.13,1.02,2.39,1.02,3.77s-.33,2.66-1.02,3.77c-.68,1.13-1.61,2.01-2.77,2.67-1.17.65-2.5.98-3.97.98s-2.78-.32-3.95-.98-2.1-1.54-2.77-2.67c-.68-1.13-1.02-2.39-1.02-3.77s.33-2.66,1.02-3.77ZM607.66,156.39c.65.69,1.43,1.05,2.35,1.05s1.74-.35,2.39-1.05c.65-.69.96-1.56.96-2.6s-.32-1.92-.96-2.61c-.65-.69-1.44-1.03-2.39-1.03s-1.72.35-2.35,1.03c-.65.69-.96,1.56-.96,2.61s.32,1.9.96,2.6Z"/><path class="cls-2" d="M620.27,140.32h4.31v11.25h.46l4.36-4.77h5.51l-6.43,6.45,6.72,7.52h-5.57l-4.63-5.62h-.42v5.62h-4.31v-20.47h0Z"/><path class="cls-2" d="M636.55,157.57c-.68-1.13-1.02-2.39-1.02-3.77s.33-2.66,1-3.77c.67-1.13,1.58-2.01,2.73-2.67s2.46-.98,3.89-.98,2.7.32,3.81.96c1.1.65,1.98,1.52,2.61,2.61s.95,2.33.95,3.7v.99h-10.64c.23.95.69,1.69,1.39,2.21s1.53.79,2.49.79c.77,0,1.44-.16,2.02-.48s1.04-.77,1.38-1.34l2.89,2.52c-.71.87-1.65,1.57-2.8,2.09-1.15.51-2.41.78-3.79.78-1.55,0-2.92-.32-4.13-.98s-2.13-1.54-2.81-2.67h.01ZM640.03,151.84h6.03c-.21-.75-.58-1.31-1.12-1.67s-1.14-.55-1.83-.55-1.32.2-1.87.59-.96.94-1.21,1.63Z"/><path class="cls-2" d="M652.81,146.81h4.31v2.06c.41-.75.94-1.34,1.6-1.76.65-.42,1.41-.65,2.27-.65.45,0,.9.07,1.36.21v4.55c-.33-.2-.7-.35-1.09-.45s-.77-.15-1.13-.15c-.84,0-1.55.28-2.13.83-.58.56-.87,1.36-.87,2.41v6.91h-4.31v-13.98h0Z"/><path class="cls-2" d="M677.91,160.79h-4.31v-10.58h-2.73v-3.4h2.73v-.59c0-1.32.28-2.46.86-3.39.57-.94,1.36-1.66,2.39-2.16s2.21-.76,3.56-.76c.92,0,1.8.12,2.66.38v3.69c-.32-.2-.67-.33-1.05-.42s-.77-.13-1.18-.13c-.84,0-1.54.23-2.09.71-.56.47-.83,1.16-.83,2.05v.65h4.02v3.4h-4.02v10.58-.02Z"/><path class="cls-2" d="M683.99,150.02c.68-1.13,1.61-2.01,2.77-2.67s2.49-.98,3.95-.98,2.81.32,3.97.98c1.17.65,2.1,1.54,2.77,2.67.68,1.13,1.02,2.39,1.02,3.77s-.33,2.66-1.02,3.77c-.68,1.13-1.61,2.01-2.77,2.67-1.17.65-2.5.98-3.97.98s-2.78-.32-3.95-.98-2.1-1.54-2.77-2.67c-.68-1.13-1.02-2.39-1.02-3.77s.33-2.66,1.02-3.77ZM688.35,156.39c.65.69,1.43,1.05,2.35,1.05s1.74-.35,2.39-1.05c.65-.69.96-1.56.96-2.6s-.32-1.92-.96-2.61c-.65-.69-1.44-1.03-2.39-1.03s-1.72.35-2.35,1.03c-.65.69-.96,1.56-.96,2.61s.32,1.9.96,2.6Z"/><path class="cls-2" d="M700.96,146.81h4.31v2.06c.41-.75.94-1.34,1.6-1.76.65-.42,1.41-.65,2.27-.65.45,0,.9.07,1.36.21v4.55c-.33-.2-.7-.35-1.09-.45s-.77-.15-1.13-.15c-.84,0-1.55.28-2.13.83-.58.56-.87,1.36-.87,2.41v6.91h-4.31v-13.98h0Z"/><path class="cls-2" d="M719.9,146.81h4.31v1.69c.51-.66,1.15-1.18,1.89-1.55s1.57-.56,2.5-.56c1.23,0,2.35.31,3.36.95s1.81,1.51,2.41,2.62.89,2.4.89,3.84-.3,2.72-.89,3.84c-.6,1.12-1.41,1.99-2.41,2.62-1,.64-2.13.95-3.36.95-.93,0-1.76-.19-2.5-.56s-1.37-.89-1.89-1.55v7.58h-4.31v-19.88h0ZM725.17,156.39c.64.69,1.43,1.05,2.37,1.05s1.74-.35,2.37-1.05c.64-.69.95-1.56.95-2.6s-.31-1.92-.95-2.61c-.64-.69-1.43-1.03-2.37-1.03s-1.74.35-2.37,1.03c-.64.69-.95,1.56-.95,2.61s.31,1.9.95,2.6Z"/><path class="cls-2" d="M737.77,146.81h4.31v2.06c.41-.75.94-1.34,1.6-1.76.65-.42,1.41-.65,2.27-.65.45,0,.9.07,1.36.21v4.55c-.33-.2-.7-.35-1.09-.45s-.77-.15-1.13-.15c-.84,0-1.55.28-2.13.83-.58.56-.87,1.36-.87,2.41v6.91h-4.31v-13.98h0Z"/><path class="cls-2" d="M749.49,150.02c.68-1.13,1.61-2.01,2.77-2.67s2.49-.98,3.95-.98,2.81.32,3.97.98c1.17.65,2.1,1.54,2.77,2.67.68,1.13,1.02,2.39,1.02,3.77s-.33,2.66-1.02,3.77c-.68,1.13-1.61,2.01-2.77,2.67-1.17.65-2.5.98-3.97.98s-2.78-.32-3.95-.98-2.1-1.54-2.77-2.67c-.68-1.13-1.02-2.39-1.02-3.77s.33-2.66,1.02-3.77ZM753.86,156.39c.65.69,1.43,1.05,2.35,1.05s1.74-.35,2.39-1.05c.65-.69.96-1.56.96-2.6s-.32-1.92-.96-2.61c-.65-.69-1.44-1.03-2.39-1.03s-1.72.35-2.35,1.03c-.65.69-.96,1.56-.96,2.61s.32,1.9.96,2.6Z"/><path class="cls-2" d="M781.31,160.79h-4.31v-1.69c-.51.66-1.15,1.18-1.9,1.55s-1.58.56-2.52.56c-1.22,0-2.33-.31-3.35-.95s-1.83-1.51-2.42-2.62c-.6-1.12-.89-2.4-.89-3.84s.3-2.72.89-3.84,1.41-1.99,2.42-2.62,2.13-.95,3.35-.95c.93,0,1.76.19,2.52.56s1.38.9,1.9,1.58v-8.19h4.31v20.47-.02ZM776.03,151.19c-.65-.69-1.44-1.03-2.39-1.03s-1.72.35-2.35,1.03c-.65.69-.96,1.56-.96,2.61s.32,1.9.96,2.6c.65.69,1.43,1.05,2.35,1.05s1.74-.35,2.39-1.05c.65-.69.96-1.56.96-2.6s-.32-1.92-.96-2.61Z"/><path class="cls-2" d="M797.44,160.79h-4.31v-1.53c-.45.6-1,1.08-1.67,1.43s-1.43.52-2.27.52c-1.52,0-2.72-.49-3.62-1.47s-1.34-2.34-1.34-4.07v-8.86h4.31v8.3c0,.77.18,1.37.52,1.81s.86.66,1.54.66,1.29-.26,1.79-.76c.49-.51.74-1.22.74-2.13v-7.88h4.31v13.98h0Z"/><path class="cls-2" d="M800.97,150.02c.69-1.13,1.64-2.01,2.82-2.67,1.18-.65,2.52-.98,4.01-.98,1.31,0,2.5.26,3.57.76,1.08.51,1.96,1.21,2.67,2.1l-3.02,2.7c-.36-.62-.8-1.08-1.35-1.36s-1.13-.42-1.75-.42-1.24.16-1.79.47-.98.74-1.29,1.28-.48,1.17-.48,1.89.16,1.32.48,1.87.76.98,1.29,1.29,1.14.47,1.79.47,1.21-.15,1.75-.42.99-.74,1.35-1.36l3.02,2.73c-.69.87-1.58,1.56-2.67,2.08-1.08.51-2.28.76-3.57.76-1.48,0-2.81-.32-4.01-.98-1.18-.65-2.13-1.54-2.82-2.67s-1.05-2.39-1.05-3.77.35-2.66,1.05-3.77h0Z"/><path class="cls-2" d="M818.22,150.21h-3.06v-3.4h3.06v-4.04h4.31v4.04h3.64v3.4h-3.64v10.58h-4.31v-10.58Z"/><path class="cls-2" d="M828.64,140.56c.5-.46,1.14-.68,1.9-.68s1.41.22,1.9.68c.5.46.75,1.04.75,1.75s-.25,1.29-.75,1.75-1.14.68-1.9.68-1.41-.22-1.9-.68c-.5-.46-.75-1.04-.75-1.75s.25-1.29.75-1.75ZM828.37,146.81h4.31v13.98h-4.31v-13.98Z"/><path class="cls-2" d="M836.22,150.02c.68-1.13,1.61-2.01,2.77-2.67s2.49-.98,3.95-.98,2.81.32,3.97.98c1.17.65,2.1,1.54,2.77,2.67.68,1.13,1.02,2.39,1.02,3.77s-.33,2.66-1.02,3.77c-.68,1.13-1.61,2.01-2.77,2.67-1.17.65-2.5.98-3.97.98s-2.78-.32-3.95-.98-2.1-1.54-2.77-2.67c-.68-1.13-1.02-2.39-1.02-3.77s.33-2.66,1.02-3.77ZM840.58,156.39c.65.69,1.43,1.05,2.35,1.05s1.74-.35,2.39-1.05c.65-.69.96-1.56.96-2.6s-.32-1.92-.96-2.61c-.65-.69-1.44-1.03-2.39-1.03s-1.72.35-2.35,1.03c-.65.69-.96,1.56-.96,2.61s.32,1.9.96,2.6Z"/><path class="cls-2" d="M853.2,146.81h4.31v1.53c.45-.6,1-1.08,1.67-1.43s1.43-.52,2.27-.52c1.5,0,2.7.49,3.6,1.46s1.35,2.33,1.35,4.08v8.86h-4.31v-8.3c0-.77-.18-1.37-.52-1.81s-.86-.66-1.54-.66-1.29.26-1.79.76c-.49.51-.74,1.22-.74,2.13v7.88h-4.31v-13.98h0Z"/><path class="cls-2" d="M876.58,155.62h-8.25v-3.73h8.25v3.73Z"/><path class="cls-2" d="M895.1,160.79h-2.57l-3.56-8.3-3.59,8.3h-2.54l-5.57-13.98h4.47l2.7,7.55,3.27-7.55h2.62l3.24,7.5,2.79-7.5h4.34l-5.6,13.98Z"/><path class="cls-2" d="M903.02,140.56c.5-.46,1.14-.68,1.9-.68s1.41.22,1.9.68c.5.46.75,1.04.75,1.75s-.25,1.29-.75,1.75-1.14.68-1.9.68-1.41-.22-1.9-.68c-.5-.46-.75-1.04-.75-1.75s.25-1.29.75-1.75ZM902.74,146.81h4.31v13.98h-4.31v-13.98Z"/><path class="cls-2" d="M911.82,156.12c.36.59.85,1.06,1.47,1.41s1.29.52,2.01.52c.65,0,1.15-.12,1.52-.36.37-.25.55-.58.55-1s-.15-.69-.42-.85-.55-.25-.78-.28c-.21-.03-.5-.09-.87-.15-.37-.07-.76-.13-1.16-.2-.21-.03-.55-.11-1-.21-.46-.11-.94-.3-1.45-.58s-.94-.67-1.29-1.19-.54-1.19-.54-2.03c0-.96.26-1.81.76-2.53.51-.73,1.19-1.28,2.06-1.69s1.83-.6,2.9-.6,2.15.2,3.14.61c.98.41,1.81.96,2.47,1.66l-2.62,2.39c-.29-.51-.67-.92-1.16-1.18-.49-.27-1.05-.4-1.67-.4-.57,0-1.03.11-1.36.33s-.51.52-.51.89.13.6.41.73.54.2.79.25.58.09.99.15c.41.07.81.12,1.21.18.2.02.52.09.98.2.46.11.94.31,1.43.6s.93.7,1.27,1.25c.35.55.52,1.26.52,2.15,0,1.02-.27,1.9-.79,2.66-.52.75-1.25,1.34-2.15,1.75-.92.42-1.96.62-3.16.62-1.27,0-2.46-.22-3.56-.66s-2.03-1.07-2.76-1.89l2.81-2.54h-.02Z"/><path class="cls-2" d="M924.39,157.57c-.68-1.13-1.02-2.39-1.02-3.77s.33-2.66,1-3.77c.67-1.13,1.58-2.01,2.73-2.67s2.46-.98,3.89-.98,2.7.32,3.81.96c1.1.65,1.98,1.52,2.61,2.61s.95,2.33.95,3.7v.99h-10.64c.23.95.69,1.69,1.39,2.21s1.53.79,2.49.79c.77,0,1.44-.16,2.02-.48s1.04-.77,1.38-1.34l2.89,2.52c-.71.87-1.65,1.57-2.8,2.09-1.15.51-2.41.78-3.79.78-1.55,0-2.92-.32-4.13-.98s-2.13-1.54-2.81-2.67h.01ZM927.87,151.84h6.03c-.21-.75-.58-1.31-1.12-1.67s-1.14-.55-1.83-.55-1.32.2-1.87.59-.96.94-1.21,1.63Z"/><path class="cls-2" d="M964.8,160.79h-2.57l-3.56-8.3-3.59,8.3h-2.54l-5.57-13.98h4.47l2.7,7.55,3.27-7.55h2.62l3.24,7.5,2.79-7.5h4.34l-5.6,13.98Z"/><path class="cls-2" d="M972.12,150.02c.68-1.13,1.61-2.01,2.77-2.67s2.49-.98,3.95-.98,2.81.32,3.97.98c1.17.65,2.1,1.54,2.77,2.67.68,1.13,1.02,2.39,1.02,3.77s-.33,2.66-1.02,3.77c-.68,1.13-1.61,2.01-2.77,2.67-1.17.65-2.5.98-3.97.98s-2.78-.32-3.95-.98-2.1-1.54-2.77-2.67c-.68-1.13-1.02-2.39-1.02-3.77s.33-2.66,1.02-3.77ZM976.48,156.39c.65.69,1.43,1.05,2.35,1.05s1.74-.35,2.39-1.05c.65-.69.96-1.56.96-2.6s-.32-1.92-.96-2.61c-.65-.69-1.44-1.03-2.39-1.03s-1.72.35-2.35,1.03c-.65.69-.96,1.56-.96,2.61s.32,1.9.96,2.6Z"/><path class="cls-2" d="M989.09,146.81h4.31v2.06c.41-.75.94-1.34,1.6-1.76.65-.42,1.41-.65,2.27-.65.45,0,.9.07,1.36.21v4.55c-.33-.2-.7-.35-1.09-.45s-.77-.15-1.13-.15c-.84,0-1.55.28-2.13.83-.58.56-.87,1.36-.87,2.41v6.91h-4.31v-13.98h0Z"/><path class="cls-2" d="M1000.63,140.32h4.31v11.25h.46l4.36-4.77h5.51l-6.43,6.45,6.72,7.52h-5.57l-4.63-5.62h-.42v5.62h-4.31v-20.47h0Z"/><path class="cls-2" d="M1019.3,150.21h-2.73v-3.4h2.73v-.59c0-1.32.28-2.46.86-3.39.57-.94,1.36-1.66,2.39-2.16s2.21-.76,3.56-.76c.33,0,.67.02,1,.07s.65.11.95.2v3.56c-.23-.12-.47-.21-.73-.26-.25-.04-.51-.07-.8-.07-.84,0-1.54.23-2.09.71-.56.47-.83,1.16-.83,2.05v.65h4.02v3.4h-4.02v10.58h-4.31v-10.58h-.01ZM1029.29,140.32h4.31v20.47h-4.31v-20.47Z"/><path class="cls-2" d="M1036.82,150.02c.68-1.13,1.61-2.01,2.77-2.67s2.49-.98,3.95-.98,2.81.32,3.97.98c1.17.65,2.1,1.54,2.77,2.67.68,1.13,1.02,2.39,1.02,3.77s-.33,2.66-1.02,3.77c-.68,1.13-1.61,2.01-2.77,2.67-1.17.65-2.5.98-3.97.98s-2.78-.32-3.95-.98-2.1-1.54-2.77-2.67c-.68-1.13-1.02-2.39-1.02-3.77s.33-2.66,1.02-3.77ZM1041.18,156.39c.65.69,1.43,1.05,2.35,1.05s1.74-.35,2.39-1.05c.65-.69.96-1.56.96-2.6s-.32-1.92-.96-2.61c-.65-.69-1.44-1.03-2.39-1.03s-1.72.35-2.35,1.03c-.65.69-.96,1.56-.96,2.61s.32,1.9.96,2.6Z"/><path class="cls-2" d="M1069.84,160.79h-2.57l-3.56-8.3-3.59,8.3h-2.54l-5.57-13.98h4.47l2.7,7.55,3.27-7.55h2.62l3.24,7.5,2.79-7.5h4.34l-5.6,13.98h0Z"/><path class="cls-2" d="M1078.64,156.12c.36.59.85,1.06,1.47,1.41.62.35,1.29.52,2.01.52.65,0,1.15-.12,1.52-.36.37-.25.55-.58.55-1s-.15-.69-.42-.85-.55-.25-.78-.28c-.21-.03-.5-.09-.87-.15-.37-.07-.76-.13-1.16-.2-.21-.03-.55-.11-1-.21-.46-.11-.94-.3-1.45-.58s-.94-.67-1.29-1.19-.54-1.19-.54-2.03c0-.96.26-1.81.76-2.53.51-.73,1.19-1.28,2.06-1.69s1.83-.6,2.9-.6,2.15.2,3.14.61c.98.41,1.81.96,2.47,1.66l-2.62,2.39c-.29-.51-.67-.92-1.16-1.18-.49-.27-1.05-.4-1.67-.4-.57,0-1.03.11-1.36.33s-.51.52-.51.89.13.6.41.73.54.2.79.25.58.09.99.15c.41.07.81.12,1.21.18.2.02.52.09.98.2.46.11.94.31,1.43.6s.93.7,1.27,1.25c.35.55.52,1.26.52,2.15,0,1.02-.27,1.9-.79,2.66-.52.75-1.25,1.34-2.15,1.75-.92.42-1.96.62-3.16.62-1.27,0-2.46-.22-3.56-.66s-2.03-1.07-2.76-1.89l2.81-2.54h-.02Z"/><path class="cls-4" d="M215.47,70.91c0-32.01,23.66-55.98,55.83-55.98,25.05,0,45,15.16,51.81,37.58h-18.71c-5.72-12.68-17.94-20.88-33.25-20.88-22.11,0-38.04,16.7-38.04,39.28s15.93,39.28,38.04,39.28c15.31,0,27.53-8.2,33.25-20.88h18.71c-6.8,22.42-26.75,37.58-51.81,37.58-32.17,0-55.83-23.97-55.83-55.98Z"/><path class="cls-4" d="M333.63,5.96h17.63v119.08h-17.63V5.96Z"/><path class="cls-4" d="M365.02,39.98h17.48v85.06h-17.48V39.98Z"/><path class="cls-4" d="M397.34,39.98h17.48v14.38c6.34-9.74,16.39-16.24,29.85-16.24,22.27,0,39.13,18.4,39.13,44.38s-16.55,44.38-39.28,44.38c-13.3,0-23.35-6.34-29.69-16.08v52.89h-17.48V39.98ZM466.16,82.51c0-16.24-10.52-27.68-25.36-27.68s-26.14,11.44-26.14,27.68,11.29,27.68,26.14,27.68,25.36-11.29,25.36-27.68Z"/><path class="cls-4" d="M504.51,92.41v-36.03h-15.77v-16.39h15.77v-19.33l17.48-3.87v23.2h34.95v16.39h-34.95v35.1c0,12.37,5.72,19.18,16.7,19.18,5.41,0,11.44-1.86,18.09-4.18l3.09,14.23c-4.64,2.78-14.54,6.19-24.28,6.19-17.48,0-31.08-10.98-31.08-34.49Z"/><path class="cls-4" d="M569.62,39.98h17.47v16.7c5.26-11.75,14.85-18.56,28.3-18.56,2.17,0,3.87.15,5.1.46v17.78c-1.55-.15-2.94-.31-5.26-.31-15.93,0-28.15,8.97-28.15,30v38.97h-17.47V39.98Z"/><path class="cls-4" d="M624.83,82.51c0-25.98,16.86-44.38,39.13-44.38,13.3,0,23.66,6.65,29.85,16.39v-14.54h17.47v85.06h-17.47v-14.23c-6.34,9.74-16.39,16.08-29.69,16.08-22.73,0-39.28-18.4-39.28-44.38ZM693.96,82.51c0-16.24-11.29-27.68-26.14-27.68s-25.36,11.44-25.36,27.68,10.67,27.68,25.36,27.68,26.14-11.29,26.14-27.68Z"/><path class="cls-4" d="M722.73,82.51c0-25.36,18.87-44.38,44.23-44.38,20.1,0,37.89,12.22,41.75,32.79h-18.09c-3.25-10.67-12.68-16.55-23.66-16.55-15.77,0-26.6,11.75-26.6,28.15s11.13,28.15,26.45,28.15c11.13,0,20.57-6.19,23.82-16.7h18.09c-4.02,21.03-21.96,32.94-41.91,32.94-25.21,0-44.08-19.02-44.08-44.38Z"/><path class="cls-4" d="M836.86,76.64l36.81-36.65h22.42l-41.6,40.36,45,44.69h-22.58l-40.05-39.13v39.13h-17.47V5.96h17.47v70.67Z"/><path class="cls-4" d="M939.66,82.67c0-25.67,18.25-44.54,43.92-44.54,27.37,0,44.69,21.19,42.99,49.18h-68.97c1.24,15.62,12.22,24.28,26.44,24.28,10.21,0,18.71-4.33,22.73-12.68h18.09c-6.65,19.02-22.89,27.84-40.98,27.84-25.83,0-44.23-18.4-44.23-44.07ZM1007.86,73.08c-2.63-11.75-11.29-19.79-24.28-19.79s-22.27,8.2-25.05,19.79h49.33Z"/><path class="cls-4" d="M1037.4,39.98h17.47v16.7c5.26-11.75,14.85-18.56,28.3-18.56,2.17,0,3.87.15,5.1.46v17.78c-1.55-.15-2.94-.31-5.26-.31-15.93,0-28.15,8.97-28.15,30v38.97h-17.47V39.98Z"/><polygon class="cls-4" points="916.16 39.91 938.59 39.91 896.99 80.27 941.99 124.96 919.41 124.96 873.87 80.54 916.16 39.91"/><path class="cls-2" d="M385.23,22c0,6.61-4.84,11.44-11.55,11.44s-11.4-4.83-11.4-11.44,5-11.12,11.4-11.12,11.55,4.67,11.55,11.12Z"/><path class="cls-1" d="M87.38,87.93l42.09,52.04h-25.8l-37.91-46.99v46.99h-20.61V39.06h20.61v44.54l35.89-44.54h25.51l-39.79,48.87Z"/><polygon class="cls-4" points="141.56 39.07 161.65 39.07 124.38 86.95 164.7 139.96 144.47 139.96 103.67 87.26 141.56 39.07"/></svg>